<svg width="40" height="40" viewBox="0 0 40 40" fill="none" xmlns="http://www.w3.org/2000/svg">
<path d="M22.2357 6.66659C21.8672 7.70919 21.6667 8.83114 21.6667 9.99992H8.33333V33.3333H31.6667V19.9999C32.8355 19.9999 33.9573 19.7994 35 19.4309V34.9999C35 35.9204 34.2538 36.6666 33.3333 36.6666H6.66667C5.7462 36.6666 5 35.9204 5 34.9999V8.33325C5 7.41279 5.7462 6.66659 6.66667 6.66659H22.2357ZM31.6667 13.3333C33.5077 13.3333 35 11.8409 35 9.99992C35 8.15897 33.5077 6.66659 31.6667 6.66659C29.8257 6.66659 28.3333 8.15897 28.3333 9.99992C28.3333 11.8409 29.8257 13.3333 31.6667 13.3333ZM31.6667 16.6666C27.9848 16.6666 25 13.6818 25 9.99992C25 6.31802 27.9848 3.33325 31.6667 3.33325C35.3485 3.33325 38.3333 6.31802 38.3333 9.99992C38.3333 13.6818 35.3485 16.6666 31.6667 16.6666Z" fill="#1A1A1A"/>
</svg>
