<svg width="40" height="36" viewBox="0 0 40 36" fill="none" xmlns="http://www.w3.org/2000/svg">
<path d="M6.66666 33C6.66666 26.3725 12.6362 21 20 21C27.3638 21 33.3333 26.3725 33.3333 33H30C30 28.0294 25.5228 24 20 24C14.4771 24 9.99999 28.0294 9.99999 33H6.66666ZM20 19.5C14.475 19.5 9.99999 15.4725 9.99999 10.5C9.99999 5.5275 14.475 1.5 20 1.5C25.525 1.5 30 5.5275 30 10.5C30 15.4725 25.525 19.5 20 19.5ZM20 16.5C23.6833 16.5 26.6667 13.815 26.6667 10.5C26.6667 7.185 23.6833 4.5 20 4.5C16.3167 4.5 13.3333 7.185 13.3333 10.5C13.3333 13.815 16.3167 16.5 20 16.5Z" fill="black"/>
</svg>
