<svg width="543" height="179" viewBox="0 0 543 179" fill="none" xmlns="http://www.w3.org/2000/svg">
<g clip-path="url(#clip0_621_365)">
<path d="M494.272 163.408C483.862 168.087 471.935 172.128 458.841 175.41C458.541 175.487 458.236 175.56 457.929 175.635L436.731 167.758C436.954 167.671 437.201 167.574 437.466 167.467C453.261 161.17 531.671 117.142 536.896 106.42C536.536 107.313 541.611 142.341 494.272 163.408Z" fill="#F0F0F0"/>
<path d="M462.932 176.93C462.531 176.97 462.124 177.008 461.715 177.042L445.812 171.132C446.122 171.087 446.486 171.032 446.901 170.972C453.724 169.958 474.047 166.896 494.271 163.408C516.002 159.658 537.629 155.422 542.28 152.708C541.282 153.338 510.548 172.459 462.932 176.93Z" fill="#F0F0F0"/>
<path d="M493.978 46.8796H491.714V20.8303C491.714 18.8504 490.785 16.8899 488.98 15.0607C487.176 13.2315 484.531 11.5695 481.197 10.1695C477.862 8.76952 473.904 7.65897 469.547 6.9013C465.191 6.14363 460.521 5.75366 455.806 5.75366H324.363C319.647 5.75366 314.978 6.14362 310.622 6.90129C306.265 7.65895 302.307 8.76949 298.972 10.1695C295.638 11.5695 292.993 13.2315 291.188 15.0607C289.384 16.8899 288.455 18.8504 288.455 20.8303V163.739C288.455 165.719 289.384 167.679 291.188 169.508C292.993 171.338 295.638 173 298.972 174.4C302.307 175.8 306.265 176.91 310.622 177.668C314.978 178.425 319.647 178.815 324.363 178.815H455.806C460.521 178.815 465.191 178.425 469.547 177.668C473.904 176.91 477.862 175.8 481.196 174.4C484.531 173 487.176 171.338 488.98 169.508C490.785 167.679 491.714 165.719 491.714 163.739V65.4219H493.978V46.8796Z" fill="#3F3D56"/>
<path d="M484.07 20.9339V163.634C484.07 165.113 483.376 166.577 482.028 167.943C480.68 169.309 478.705 170.55 476.214 171.596C473.723 172.641 470.767 173.47 467.513 174.035C464.259 174.601 460.772 174.892 457.25 174.891H325.174C321.654 174.891 318.167 174.6 314.914 174.034C311.662 173.469 308.706 172.64 306.216 171.594C303.727 170.549 301.752 169.308 300.405 167.942C299.057 166.577 298.364 165.113 298.364 163.634V20.9339C298.364 19.4556 299.057 17.9917 300.405 16.626C301.752 15.2602 303.727 14.0192 306.216 12.9739C308.706 11.9286 311.662 11.0994 314.914 10.5338C318.167 9.9681 321.654 9.67701 325.174 9.67712H341.202C340.416 10.4894 340.116 11.3704 340.331 12.2426C340.545 13.1148 341.267 13.9516 342.432 14.6792C343.597 15.4069 345.171 16.0032 347.013 16.4157C348.856 16.8282 350.912 17.0442 353.001 17.0448H428.301C430.391 17.0456 432.449 16.8305 434.293 16.4184C436.138 16.0063 437.713 15.4099 438.879 14.6818C440.045 13.9537 440.766 13.1163 440.979 12.2435C441.192 11.3707 440.89 10.4893 440.1 9.67712H457.25C460.772 9.67659 464.259 9.96736 467.513 10.5328C470.767 11.0983 473.723 11.9274 476.214 12.9727C478.705 14.018 480.68 15.2592 482.028 16.6252C483.376 17.9912 484.07 19.4553 484.07 20.9339Z" fill="white"/>
<path d="M442.986 95.0887H326.895C324.862 95.0877 322.912 94.7481 321.474 94.1444C320.037 93.5407 319.228 92.7222 319.226 91.8685V90.2656C319.228 89.4119 320.037 88.5933 321.474 87.9896C322.912 87.3859 324.862 87.0464 326.895 87.0454H442.986C445.019 87.0464 446.968 87.3859 448.406 87.9896C449.844 88.5933 450.653 89.4119 450.655 90.2656V91.8685C450.653 92.7222 449.844 93.5407 448.406 94.1444C446.968 94.7481 445.019 95.0877 442.986 95.0887Z" fill="#F0F0F0"/>
<path d="M442.986 108.906H326.895C324.862 108.905 322.912 108.565 321.474 107.961C320.037 107.358 319.228 106.539 319.226 105.685V104.083C319.228 103.229 320.037 102.41 321.474 101.807C322.912 101.203 324.862 100.863 326.895 100.862H442.986C445.019 100.863 446.968 101.203 448.406 101.807C449.844 102.41 450.653 103.229 450.655 104.083V105.685C450.653 106.539 449.844 107.358 448.406 107.961C446.968 108.565 445.019 108.905 442.986 108.906Z" fill="#F0F0F0"/>
<path d="M448.793 91.9985H332.702C330.567 91.9975 328.52 91.6409 327.011 91.007C325.501 90.3732 324.652 89.5137 324.649 88.6173V87.0144C324.652 86.118 325.501 85.2586 327.011 84.6247C328.52 83.9908 330.567 83.6343 332.702 83.6332H448.793C450.928 83.6343 452.975 83.9908 454.485 84.6247C455.994 85.2586 456.843 86.118 456.846 87.0144V88.6173C456.843 89.5137 455.994 90.3732 454.485 91.007C452.975 91.6409 450.928 91.9975 448.793 91.9985ZM332.702 84.2773C330.974 84.2781 329.317 84.5667 328.095 85.0799C326.873 85.593 326.185 86.2887 326.183 87.0144V88.6173C326.185 89.343 326.873 90.0387 328.095 90.5519C329.317 91.065 330.974 91.3537 332.702 91.3545H448.793C450.521 91.3537 452.178 91.065 453.4 90.5519C454.623 90.0387 455.31 89.343 455.312 88.6173V87.0144C455.31 86.2887 454.623 85.593 453.4 85.0799C452.178 84.5667 450.521 84.2781 448.793 84.2773H332.702Z" fill="#3F3D56"/>
<path d="M448.793 105.815H332.702C330.567 105.814 328.52 105.458 327.011 104.824C325.501 104.19 324.652 103.331 324.649 102.434V100.831C324.652 99.935 325.501 99.0755 327.011 98.4417C328.52 97.8078 330.567 97.4512 332.702 97.4502H448.793C450.928 97.4512 452.975 97.8078 454.485 98.4417C455.994 99.0755 456.843 99.935 456.846 100.831V102.434C456.843 103.331 455.994 104.19 454.485 104.824C452.975 105.458 450.928 105.814 448.793 105.815ZM332.702 98.0942C330.974 98.095 329.317 98.3837 328.095 98.8968C326.873 99.41 326.185 100.106 326.183 100.831V102.434C326.185 103.16 326.873 103.856 328.095 104.369C329.317 104.882 330.974 105.171 332.702 105.171H448.793C450.521 105.171 452.178 104.882 453.4 104.369C454.623 103.856 455.31 103.16 455.312 102.434V100.831C455.31 100.106 454.623 99.41 453.4 98.8968C452.178 98.3837 450.521 98.095 448.793 98.0942H332.702Z" fill="#3F3D56"/>
<path d="M484.069 20.9339V51.9732C472.323 53.2708 460.024 53.4196 448.119 52.4084C436.214 51.3971 425.02 49.2526 415.398 46.14C405.777 43.0273 397.984 39.0294 392.62 34.4539C387.256 29.8783 384.463 24.8471 384.456 19.7472C384.456 18.837 384.543 17.9361 384.717 17.0448H428.3C430.39 17.0456 432.448 16.8305 434.293 16.4184C436.138 16.0063 437.712 15.4099 438.878 14.6818C440.044 13.9537 440.766 13.1163 440.979 12.2435C441.191 11.3707 440.889 10.4893 440.099 9.67712H457.25C460.771 9.67659 464.258 9.96736 467.512 10.5328C470.766 11.0983 473.723 11.9274 476.213 12.9727C478.704 14.018 480.68 15.2592 482.028 16.6252C483.376 17.9912 484.069 19.4553 484.069 20.9339Z" fill="#F0F0F0"/>
<path d="M365.099 172.953C365.099 173.607 365.041 174.253 364.915 174.891H325.174C321.654 174.891 318.167 174.6 314.914 174.034C311.662 173.469 308.706 172.64 306.216 171.594C303.727 170.549 301.752 169.308 300.405 167.942C299.057 166.576 298.364 165.113 298.364 163.634V148.371C306.694 147.916 315.16 148.212 323.196 149.238C331.233 150.265 338.656 151.999 344.971 154.326C351.286 156.652 356.347 159.516 359.818 162.728C363.289 165.94 365.089 169.426 365.099 172.953Z" fill="#FF8363"/>
<path d="M44.5765 146.171C45.6932 146.377 46.959 146.389 48.0965 146.203C49.2339 146.018 50.15 145.651 50.6438 145.183L86.4445 111.115C87.2639 110.336 87.5143 109.472 87.1639 108.632C86.8136 107.793 85.8783 107.016 84.4763 106.4C83.0744 105.784 81.2687 105.356 79.2877 105.171C77.3066 104.985 75.2393 105.051 73.347 105.359C71.1608 105.709 69.3313 106.367 68.1699 107.22C67.9851 107.355 67.8176 107.494 67.668 107.637L31.8673 141.704C31.6233 141.936 31.4906 142.186 31.4768 142.44C31.463 142.694 31.5683 142.946 31.7867 143.183C32.0052 143.419 32.3325 143.636 32.75 143.819C33.1675 144.002 33.6669 144.15 34.2198 144.252L44.5765 146.171Z" fill="#FF8363"/>
<path d="M84.9739 125.102L49.5625 121.797L58.3272 112.062C59.8203 109.683 63.2951 107.607 68.1213 106.211C72.9476 104.815 78.8056 104.191 84.6328 104.453L84.9739 104.469L84.9739 125.102Z" fill="#2F2E41"/>
<path d="M156.5 146.658C155.458 146.657 154.439 146.53 153.567 146.291C152.694 146.052 152.005 145.713 151.582 145.313L115.782 111.245C114.643 110.161 114.537 108.935 115.486 107.82C116.434 106.704 118.365 105.783 120.881 105.247C123.398 104.711 126.307 104.6 129.012 104.937C131.717 105.274 134.011 106.034 135.423 107.06C135.621 107.205 135.801 107.354 135.962 107.507L171.762 141.574C172.337 142.121 172.371 142.742 171.856 143.299C171.341 143.857 170.32 144.305 169.018 144.547L158.31 146.53L158.304 146.525C157.726 146.613 157.115 146.658 156.5 146.658Z" fill="#FF8363"/>
<path d="M106.979 134.959C105.759 134.96 104.589 135.163 103.726 135.526C102.864 135.888 102.378 136.379 102.377 136.891V176.504C102.378 177.016 102.864 177.508 103.726 177.87C104.589 178.232 105.759 178.436 106.979 178.436H118.298C119.518 178.436 120.688 178.232 121.551 177.87C122.414 177.508 122.899 177.016 122.9 176.504V136.891C122.899 136.379 122.414 135.888 121.551 135.526C120.688 135.163 119.518 134.96 118.298 134.959H106.979Z" fill="#FF8363"/>
<path d="M84.589 134.959C83.369 134.96 82.1993 135.163 81.3366 135.526C80.4739 135.888 79.9887 136.379 79.9873 136.891V176.504C79.9887 177.016 80.4739 177.508 81.3366 177.87C82.1993 178.232 83.369 178.436 84.589 178.436H95.909C97.129 178.436 98.2987 178.232 99.1614 177.87C100.024 177.508 100.509 177.016 100.511 176.504V136.891C100.509 136.379 100.024 135.888 99.1614 135.526C98.2987 135.163 97.129 134.96 95.909 134.959H84.589Z" fill="#FF8363"/>
<path d="M101.106 93.4577C122.708 93.4577 140.22 86.1049 140.22 77.0347C140.22 67.9646 122.708 60.6118 101.106 60.6118C79.5033 60.6118 61.9912 67.9646 61.9912 77.0347C61.9912 86.1049 79.5033 93.4577 101.106 93.4577Z" fill="#FF8363"/>
<path d="M114.122 83.9288C116.657 83.8993 119.813 83.8623 122.244 83.1167C122.968 82.8856 123.562 82.5908 123.986 82.253C124.41 81.9152 124.653 81.5425 124.698 81.1612C124.742 80.8901 124.636 80.6185 124.389 80.3675C124.141 80.1165 123.759 79.8929 123.271 79.7143C122.002 79.2638 120.147 79.1581 118.149 79.4047L120.22 73.0527L118.7 72.9652L116.266 80.4329L117.535 80.1883C119.007 79.905 121.026 79.7608 122.281 80.2061C122.589 80.3225 122.829 80.4672 122.983 80.6289C123.136 80.7907 123.198 80.965 123.165 81.1385C123.128 81.4224 122.946 81.6995 122.63 81.9511C122.315 82.2027 121.875 82.4229 121.339 82.5966C119.447 83.1768 116.932 83.2516 114.079 83.2851L114.122 83.9288Z" fill="#2F2E41"/>
<path d="M135.997 73.6005H127.735V74.2445H135.997V73.6005Z" fill="#2F2E41"/>
<path d="M109.92 73.6005H101.659V74.2445H109.92V73.6005Z" fill="#2F2E41"/>
<path d="M139.862 146.858L125.784 103.707C125.633 103.245 125.088 102.82 124.25 102.513C123.411 102.207 122.337 102.037 121.224 102.037H110.598C110.642 101.931 110.665 101.823 110.667 101.715V100.105C110.667 99.5928 110.182 99.1014 109.319 98.7391C108.456 98.3767 107.286 98.1732 106.065 98.1732H96.8618C95.6413 98.1732 94.4709 98.3767 93.6079 98.7391C92.7449 99.1014 92.2601 99.5928 92.2601 100.105V101.715C92.2617 101.823 92.2847 101.931 92.329 102.037H81.7025C80.5903 102.037 79.5156 102.207 78.6774 102.514C77.8392 102.821 77.2942 103.245 77.1432 103.707L63.065 146.858C62.9759 147.131 63.0271 147.409 63.2154 147.674C63.4036 147.938 63.7245 148.182 64.1564 148.39C64.5884 148.598 65.1213 148.765 65.7194 148.879C66.3176 148.993 66.967 149.052 67.624 149.052H135.303C135.96 149.052 136.609 148.993 137.207 148.879C137.806 148.765 138.339 148.598 138.77 148.39C139.202 148.182 139.523 147.938 139.712 147.674C139.9 147.409 139.951 147.131 139.862 146.858Z" fill="#2F2E41"/>
<path d="M117.953 125.102V104.469L118.294 104.453C124.129 104.192 129.993 104.817 134.822 106.216C139.652 107.616 143.125 109.696 144.612 112.079L153.364 121.797L117.953 125.102Z" fill="#2F2E41"/>
<path d="M99.1358 93.9702L72.0814 89.5611C67.6574 88.8402 63.2087 88.1411 58.8081 87.3953C56.9232 87.1195 55.1868 86.6899 53.6991 86.131C52.4039 85.5553 51.5211 84.8381 51.152 84.0614C50.2136 82.3962 50.3833 80.5755 50.4502 78.8761C50.5021 77.017 50.8665 75.1618 51.5406 73.3243C52.7221 69.8712 55.4966 66.5482 59.7088 63.5412C67.296 58.3143 80.3683 54.3818 95.4049 54.6957C102.366 54.841 109.368 55.8898 114.54 57.8882C115.079 58.1589 115.685 58.4052 116.346 58.6232C116.806 58.6955 117.306 58.7096 117.785 58.6637C118.416 58.6467 119.047 58.6337 119.68 58.6247C121.873 58.5858 124.071 58.6245 126.249 58.7404C130.218 58.9204 133.98 59.5763 137.086 60.6298C139.671 61.5633 141.774 62.8812 141.99 64.3458C142.095 65.0182 141.83 65.6916 141.217 66.3142C140.603 66.9367 139.657 67.4918 138.451 67.9365C135.224 69.0787 130.619 68.6772 126.747 68.5911L112.563 68.2756L105.377 68.1158C103.897 68.0828 103.901 69.049 105.377 69.0818L124.477 69.5067C127.547 69.575 130.71 69.7423 133.782 69.665C136.143 69.6201 138.397 69.2395 140.173 68.5855C141.796 67.9596 143.005 67.1678 143.682 66.2873C144.359 65.4069 144.481 64.4678 144.036 63.5616C143.052 61.5852 139.548 59.9503 135.441 58.9777C129.853 57.6542 123.179 57.5274 116.927 57.7231L117.74 57.8645C110.667 54.6771 99.8329 53.3314 89.6619 53.8023C78.9228 54.2996 69.3714 56.8151 62.5088 60.2548C54.8573 64.0899 50.6878 68.8719 49.0668 73.7892C48.2233 76.4441 47.9455 79.1253 48.237 81.801C48.225 82.981 48.7058 84.1527 49.6576 85.263C50.7435 86.3436 52.707 87.2274 55.1989 87.7574C58.0557 88.3365 60.9927 88.8431 63.9941 89.2744L73.9616 90.8988L93.5405 94.0895L98.5242 94.9017C99.9054 95.1268 100.504 94.1931 99.1358 93.9702Z" fill="#2F2E41"/>
<path d="M56.5977 61.141C54.2465 61.141 51.9481 60.8482 49.9932 60.2998C48.0383 59.7513 46.5146 58.9718 45.6149 58.0598C44.7151 57.1477 44.4797 56.1441 44.9384 55.1759C45.3971 54.2077 46.5293 53.3183 48.1918 52.6203C49.8543 51.9222 51.9725 51.4469 54.2785 51.2543C56.5845 51.0617 58.9747 51.1605 61.1469 51.5383C63.3191 51.9161 65.1757 52.5558 66.4819 53.3766C67.7882 54.1975 68.4854 55.1625 68.4854 56.1497C68.4819 57.473 67.2283 58.7417 64.9996 59.6774C62.771 60.6131 59.7494 61.1395 56.5977 61.141ZM56.5977 52.1244C54.7016 52.1244 52.848 52.3605 51.2715 52.8028C49.6949 53.2451 48.4662 53.8737 47.7406 54.6093C47.015 55.3448 46.8251 56.1541 47.195 56.9349C47.5649 57.7158 48.478 58.433 49.8187 58.9959C51.1595 59.5589 52.8677 59.9422 54.7274 60.0976C56.587 60.2529 58.5146 60.1732 60.2664 59.8685C62.0182 59.5638 63.5155 59.0479 64.5689 58.386C65.6223 57.724 66.1845 56.9458 66.1845 56.1497C66.1817 55.0825 65.1707 54.0593 63.3735 53.3047C61.5762 52.5501 59.1394 52.1256 56.5977 52.1244Z" fill="#2F2E41"/>
<path d="M255.317 92.0726L229.587 83.8098L209.908 94.6132L235.638 102.876L255.317 92.0726Z" fill="#F0F0F0"/>
<path d="M109.9 18.3124C113.966 18.3111 117.975 18.7094 121.608 19.4757C125.241 20.2419 128.396 21.3546 130.821 22.7248L145.845 14.4767L100.765 0L66.2861 18.928L85.7156 25.1674C87.66 23.1427 91.0014 21.4082 95.3108 20.1867C99.6203 18.9653 104.701 18.3126 109.9 18.3124Z" fill="#F0F0F0"/>
<path d="M542.233 179H0.766949C0.563542 179 0.368464 178.966 0.224634 178.906C0.0808028 178.845 0 178.763 0 178.678C0 178.593 0.0808028 178.511 0.224634 178.45C0.368464 178.39 0.563542 178.356 0.766949 178.356H542.233C542.436 178.356 542.632 178.39 542.775 178.45C542.919 178.511 543 178.593 543 178.678C543 178.763 542.919 178.845 542.775 178.906C542.632 178.966 542.436 179 542.233 179Z" fill="#3F3D56"/>
<path d="M410.078 125.567H354.963C352.93 125.566 350.981 125.227 349.543 124.623C348.105 124.019 347.296 123.201 347.294 122.347V120.744C347.296 119.89 348.105 119.072 349.543 118.468C350.981 117.864 352.93 117.525 354.963 117.524H410.078C412.111 117.525 414.061 117.864 415.499 118.468C416.936 119.072 417.745 119.89 417.747 120.744V122.347C417.745 123.201 416.936 124.019 415.499 124.623C414.061 125.227 412.111 125.566 410.078 125.567Z" fill="#FF8363"/>
<path d="M415.885 122.477H360.771C358.636 122.476 356.589 122.12 355.079 121.486C353.569 120.852 352.72 119.992 352.718 119.096V117.493C352.72 116.597 353.569 115.737 355.079 115.103C356.589 114.469 358.636 114.113 360.771 114.112H415.885C418.021 114.113 420.067 114.469 421.577 115.103C423.087 115.737 423.936 116.597 423.938 117.493V119.096C423.936 119.992 423.087 120.852 421.577 121.486C420.067 122.12 418.021 122.476 415.885 122.477ZM360.771 114.756C359.042 114.757 357.385 115.045 356.163 115.558C354.941 116.072 354.254 116.767 354.252 117.493V119.096C354.254 119.822 354.941 120.517 356.163 121.03C357.385 121.544 359.042 121.832 360.771 121.833H415.885C417.614 121.832 419.271 121.544 420.493 121.03C421.715 120.517 422.403 119.822 422.405 119.096V117.493C422.403 116.767 421.715 116.072 420.493 115.558C419.271 115.045 417.614 114.757 415.885 114.756H360.771Z" fill="#3F3D56"/>
</g>
<defs>
<clipPath id="clip0_621_365">
<rect width="543" height="179" fill="white"/>
</clipPath>
</defs>
</svg>
