<svg width="562" height="230" viewBox="0 0 562 230" fill="none" xmlns="http://www.w3.org/2000/svg">
<g clip-path="url(#clip0_621_283)">
<path d="M39.0008 213.059C41.5637 213.655 44.3155 213.804 46.9909 213.492C49.6664 213.181 52.1754 212.419 54.2763 211.281C59.6265 208.313 61.306 203.423 62.6688 198.895L66.7057 185.503L58.254 189.35C52.1757 192.116 45.961 194.971 41.7522 198.978C37.5433 202.984 35.7065 208.454 39.0878 212.789" fill="#E6E6E6"/>
<path d="M39.7233 229.273C38.8679 225.154 37.9881 220.983 38.5881 216.821C39.1212 213.124 40.8271 209.513 44.3017 206.553C46.1458 204.984 48.3897 203.64 50.9326 202.581C51.5959 202.305 52.2056 203 51.5458 203.275C47.1461 205.112 43.7431 207.826 41.8273 211.025C39.7114 214.581 39.3718 218.459 39.7393 222.237C39.9599 224.522 40.4269 226.791 40.8981 229.059C40.9361 229.162 40.9133 229.27 40.8343 229.362C40.7554 229.454 40.6263 229.522 40.4736 229.553C40.3182 229.581 40.1525 229.567 40.0125 229.514C39.8726 229.462 39.7696 229.375 39.7261 229.272L39.7233 229.273Z" fill="#F2F2F2"/>
<path d="M209.223 140.543C208.602 140.738 207.926 140.843 207.239 140.851L143.479 142.008C140.825 142.046 138.257 141.386 136.34 140.172C134.423 138.959 133.313 137.292 133.255 135.538C133.198 133.784 134.196 132.087 136.032 130.82C137.868 129.553 140.39 128.819 143.044 128.781L206.804 127.625C208.095 127.607 209.345 127.929 210.278 128.519C211.211 129.109 211.751 129.92 211.781 130.774L212.004 137.562C212.024 138.183 211.772 138.794 211.278 139.323C210.785 139.852 210.071 140.275 209.223 140.543Z" fill="#FF8363"/>
<path d="M127.412 229.359H117.139C115.847 229.358 114.609 229.018 113.695 228.415C112.782 227.811 112.268 226.992 112.267 226.139V169.55C112.268 168.697 112.782 167.878 113.695 167.274C114.609 166.671 115.847 166.331 117.139 166.33H127.412C128.703 166.331 129.942 166.671 130.855 167.274C131.768 167.878 132.282 168.697 132.284 169.55V226.139C132.282 226.992 131.768 227.811 130.855 228.415C129.942 229.018 128.703 229.358 127.412 229.359Z" fill="#FF8363"/>
<path d="M154.69 229.359H144.417C143.125 229.358 141.887 229.018 140.974 228.415C140.06 227.811 139.546 226.992 139.545 226.139V169.55C139.546 168.697 140.06 167.878 140.974 167.274C141.887 166.671 143.125 166.331 144.417 166.33H154.69C155.982 166.331 157.22 166.671 158.134 167.274C159.047 167.878 159.561 168.697 159.562 169.55V226.139C159.561 226.992 159.047 227.811 158.134 228.415C157.22 229.018 155.982 229.358 154.69 229.359Z" fill="#FF8363"/>
<path d="M136.918 107.504C156.522 107.504 172.415 97.0004 172.415 84.0434C172.415 71.0863 156.522 60.5826 136.918 60.5826C117.313 60.5826 101.421 71.0863 101.421 84.0434C101.421 97.0004 117.313 107.504 136.918 107.504Z" fill="#FF8363"/>
<path d="M148.966 186.397H123.43C118.123 186.41 112.905 185.496 108.304 183.748C103.704 182 99.8832 179.48 97.2299 176.443C94.5765 173.405 93.1844 169.958 93.1944 166.451C93.2044 162.944 94.6162 159.5 97.2869 156.47L132.999 115.588C133.396 115.133 133.967 114.756 134.655 114.494C135.343 114.231 136.123 114.093 136.917 114.093C137.711 114.093 138.491 114.231 139.179 114.494C139.867 114.756 140.438 115.133 140.835 115.588L175.828 155.646C178.55 158.763 179.983 162.298 179.983 165.896C179.983 169.495 178.55 173.03 175.828 176.146C173.105 179.263 169.19 181.851 164.475 183.65C159.759 185.449 154.411 186.397 148.966 186.397Z" fill="#2F2E41"/>
<path d="M145.296 93.8918C147.597 93.8495 150.46 93.7967 152.666 92.7316C153.323 92.4014 153.863 91.9803 154.248 91.4977C154.633 91.0152 154.853 90.4829 154.894 89.9381C154.934 89.5509 154.837 89.1628 154.613 88.8043C154.388 88.4457 154.041 88.1263 153.599 87.8711C152.447 87.2276 150.764 87.0767 148.951 87.4289L150.829 78.3548L149.45 78.2299L147.242 88.8976L148.393 88.5483C149.728 88.1436 151.561 87.9376 152.7 88.5737C152.98 88.74 153.198 88.9467 153.337 89.1777C153.476 89.4088 153.533 89.6579 153.503 89.9057C153.469 90.3112 153.303 90.7071 153.017 91.0665C152.731 91.4259 152.332 91.7404 151.845 91.9886C150.128 92.8174 147.846 92.9243 145.257 92.9722L145.296 93.8918Z" fill="#2F2E41"/>
<path d="M165.147 79.1374H157.649V80.0574H165.147V79.1374Z" fill="#2F2E41"/>
<path d="M141.483 79.1374H133.985V80.0574H141.483V79.1374Z" fill="#2F2E41"/>
<path d="M128.568 181.149C128.273 180.739 128.114 180.292 128.101 179.838L126.351 137.697C126.293 135.943 127.292 134.246 129.128 132.979C130.964 131.712 133.486 130.978 136.14 130.94C138.793 130.902 141.361 131.562 143.279 132.776C145.196 133.989 146.305 135.656 146.363 137.41L148.113 179.551C148.14 180.404 147.653 181.23 146.76 181.846C145.866 182.463 144.639 182.82 143.348 182.84L133.078 182.987C132.138 183 131.213 182.834 130.413 182.508C129.613 182.182 128.972 181.71 128.568 181.149Z" fill="#FF8363"/>
<path d="M133.624 66.701C137.937 70.4287 144.783 72.9293 152.019 72.3372C158.91 71.7734 164.595 68.5991 166.021 64.0544C166.644 61.9058 166.476 59.6897 165.531 57.5929C164.587 55.4962 162.894 53.5802 160.595 52.0064C155.717 48.616 148.737 46.7921 141.828 46.1667C128.74 44.982 115.298 48.0291 105.402 53.712C100.432 56.5373 96.4653 60.0516 93.7835 64.0049C91.2001 67.929 89.9697 72.1838 90.1816 76.461C90.5618 84.9138 96.1638 93.3504 105.83 98.9561C107.03 99.6501 108.287 100.301 109.594 100.905C110.696 101.416 111.741 100.22 110.648 99.713C100.749 95.1235 94.4352 87.6556 92.7022 79.8089C91.7946 75.8553 92.1993 71.8185 93.8883 67.9787C95.5773 64.1388 98.5101 60.5878 102.483 57.5719C110.476 51.5651 122.196 47.6608 134.335 47.311C146.549 46.959 161.813 50.563 164.099 59.5493C165.123 63.5771 162.845 67.8109 157.261 69.8274C151.281 71.9863 143.95 71.0978 138.812 68.3096C137.553 67.6295 136.418 66.8561 135.427 66.0045C134.622 65.3084 132.807 65.9951 133.624 66.701Z" fill="#2F2E41"/>
<path d="M492.817 5.44481L191.648 34.1991L212.293 128.652L513.461 99.8974L492.817 5.44481Z" fill="#F1F1F1"/>
<path d="M485.976 14.3665L202.031 41.4763L219.256 120.281L503.2 93.1712L485.976 14.3665Z" fill="white"/>
<path d="M491.496 -1.84482e-05L190.327 28.7542L192.175 37.2105L493.344 8.45621L491.496 -1.84482e-05Z" fill="#E5E5E5"/>
<path d="M200.922 34.4025C202.246 34.4025 203.318 33.6935 203.318 32.8189C203.318 31.9443 202.246 31.2353 200.922 31.2353C199.599 31.2353 198.526 31.9443 198.526 32.8189C198.526 33.6935 199.599 34.4025 200.922 34.4025Z" fill="white"/>
<path d="M209.923 33.5431C211.247 33.5431 212.319 32.8341 212.319 31.9595C212.319 31.0849 211.247 30.3759 209.923 30.3759C208.6 30.3759 207.527 31.0849 207.527 31.9595C207.527 32.8341 208.6 33.5431 209.923 33.5431Z" fill="white"/>
<path d="M218.925 32.6837C220.249 32.6837 221.321 31.9747 221.321 31.1001C221.321 30.2255 220.249 29.5165 218.925 29.5165C217.602 29.5165 216.529 30.2255 216.529 31.1001C216.529 31.9747 217.602 32.6837 218.925 32.6837Z" fill="white"/>
<path d="M562 46.0857H257.705V141.519H562V46.0857Z" fill="#E6E6E6"/>
<path d="M553.299 54.2692H266.407V133.892H553.299V54.2692Z" fill="white"/>
<path d="M561.871 40.572H257.576V49.116H561.871V40.572Z" fill="#CBCBCB"/>
<path d="M267.182 47.1796C268.505 47.1796 269.578 46.4706 269.578 45.596C269.578 44.7214 268.505 44.0124 267.182 44.0124C265.859 44.0124 264.786 44.7214 264.786 45.596C264.786 46.4706 265.859 47.1796 267.182 47.1796Z" fill="white"/>
<path d="M276.277 47.1796C277.6 47.1796 278.673 46.4706 278.673 45.596C278.673 44.7214 277.6 44.0124 276.277 44.0124C274.954 44.0124 273.881 44.7214 273.881 45.596C273.881 46.4706 274.954 47.1796 276.277 47.1796Z" fill="white"/>
<path d="M285.372 47.1796C286.695 47.1796 287.768 46.4706 287.768 45.596C287.768 44.7214 286.695 44.0124 285.372 44.0124C284.048 44.0124 282.976 44.7214 282.976 45.596C282.976 46.4706 284.048 47.1796 285.372 47.1796Z" fill="white"/>
<path d="M472.128 66.3748H431.723V68.382H472.128V66.3748Z" fill="#E6E6E6"/>
<path d="M494.117 72.2673H431.723V74.2745H494.117V72.2673Z" fill="#E6E6E6"/>
<path d="M483.221 77.8791H432.371V79.8863H483.221V77.8791Z" fill="#E6E6E6"/>
<path d="M461.408 84.0365H431.723V86.0437H461.408V84.0365Z" fill="#E6E6E6"/>
<path d="M476.526 90.051H431.723V92.0582H476.526V90.051Z" fill="#E6E6E6"/>
<path d="M418.254 65.7434H413.307V69.0134H418.254V65.7434Z" fill="#E6E6E6"/>
<path d="M418.254 71.6359H413.307V74.9058H418.254V71.6359Z" fill="#E6E6E6"/>
<path d="M418.254 77.2477H413.307V80.5177H418.254V77.2477Z" fill="#E6E6E6"/>
<path d="M418.254 83.4051H413.307V86.6751H418.254V83.4051Z" fill="#E6E6E6"/>
<path d="M418.254 89.4196H413.307V92.6895H418.254V89.4196Z" fill="#E6E6E6"/>
<path d="M472.128 96.103H431.723V98.1102H472.128V96.103Z" fill="#E6E6E6"/>
<path d="M494.117 101.995H431.723V104.003H494.117V101.995Z" fill="#E6E6E6"/>
<path d="M483.221 107.607H432.371V109.614H483.221V107.607Z" fill="#E6E6E6"/>
<path d="M461.408 113.765H431.723V115.772H461.408V113.765Z" fill="#E6E6E6"/>
<path d="M476.526 119.779H431.723V121.786H476.526V119.779Z" fill="#E6E6E6"/>
<path d="M418.254 95.4716H413.307V98.7416H418.254V95.4716Z" fill="#E6E6E6"/>
<path d="M418.254 101.364H413.307V104.634H418.254V101.364Z" fill="#E6E6E6"/>
<path d="M418.254 106.976H413.307V110.246H418.254V106.976Z" fill="#E6E6E6"/>
<path d="M418.254 113.133H413.307V116.403H418.254V113.133Z" fill="#E6E6E6"/>
<path d="M418.254 119.148H413.307V122.418H418.254V119.148Z" fill="#E6E6E6"/>
<path d="M344.307 111.847H303.901V113.855H344.307V111.847Z" fill="#E6E6E6"/>
<path d="M349.345 117.063H298.495V119.07H349.345V117.063Z" fill="#E6E6E6"/>
<path d="M350.365 86.5277C350.364 89.5444 349.178 92.5093 346.925 95.1328C344.671 97.7563 341.427 99.9486 337.509 101.496C333.59 103.043 329.132 103.892 324.568 103.96C320.005 104.028 315.493 103.313 311.473 101.884L311.468 101.881C307.362 100.418 303.915 98.2631 301.48 95.634C299.045 93.0049 297.707 89.9961 297.604 86.9142C297.501 83.8322 298.636 80.7873 300.893 78.0897C303.15 75.392 306.449 73.1381 310.454 71.5575C314.458 69.9769 319.025 69.1262 323.689 69.092C328.353 69.0579 332.947 69.8415 337.004 71.363C341.06 72.8845 344.434 75.0896 346.781 77.7535C349.128 80.4175 350.365 83.445 350.365 86.5277Z" fill="#E6E6E6"/>
<path d="M324.117 85.6812C328.078 85.6812 331.289 83.559 331.289 80.9411C331.289 78.3233 328.078 76.201 324.117 76.201C320.156 76.201 316.945 78.3233 316.945 80.9411C316.945 83.559 320.156 85.6812 324.117 85.6812Z" fill="white"/>
<path d="M336.363 95.4754C328.346 97.3354 319.603 97.3131 311.608 95.412L311.603 95.4097L316.946 88.439H331.289L336.363 95.4754Z" fill="white"/>
<path d="M244.713 129.809C232.212 129.809 222.042 122.669 222.042 113.892C222.042 105.116 232.212 97.9758 244.713 97.9758C257.213 97.9758 267.383 105.116 267.383 113.892C267.383 122.669 257.213 129.809 244.713 129.809ZM244.713 101.998C235.567 101.998 228.127 107.334 228.127 113.892C228.127 120.451 235.567 125.787 244.713 125.787C253.858 125.787 261.298 120.451 261.298 113.892C261.298 107.334 253.858 101.998 244.713 101.998Z" fill="#FF8363"/>
<path d="M266.18 157.548H223.244C219.458 157.545 215.828 156.55 213.15 154.78C210.473 153.011 208.967 150.611 208.963 148.109V120.274C208.966 118.56 209.997 116.918 211.83 115.706C213.663 114.495 216.148 113.813 218.74 113.811H270.684C273.277 113.813 275.762 114.495 277.595 115.706C279.428 116.918 280.459 118.56 280.462 120.274V148.109C280.457 150.611 278.951 153.011 276.274 154.78C273.597 156.55 269.967 157.545 266.18 157.548Z" fill="#3F3D56"/>
<path d="M253.079 129.647C253.081 128.664 252.685 127.699 251.934 126.85C251.183 126.002 250.103 125.301 248.806 124.82C247.509 124.339 246.041 124.095 244.554 124.114C243.067 124.132 241.615 124.413 240.346 124.926C239.077 125.439 238.038 126.166 237.336 127.033C236.634 127.899 236.295 128.874 236.352 129.856C236.409 130.838 236.862 131.793 237.663 132.621C238.464 133.449 239.585 134.122 240.909 134.568V143.22H248.516V134.568C249.889 134.106 251.042 133.401 251.847 132.533C252.653 131.664 253.079 130.666 253.079 129.647Z" fill="white"/>
<path d="M265.878 230H0.696016C0.511421 230 0.334386 229.952 0.203858 229.865C0.0733295 229.779 0 229.662 0 229.54C0 229.418 0.0733295 229.301 0.203858 229.215C0.334386 229.128 0.511421 229.08 0.696016 229.08H265.878C266.063 229.08 266.24 229.128 266.37 229.215C266.501 229.301 266.574 229.418 266.574 229.54C266.574 229.662 266.501 229.779 266.37 229.865C266.24 229.952 266.063 230 265.878 230Z" fill="#3F3D56"/>
</g>
<defs>
<clipPath id="clip0_621_283">
<rect width="562" height="230" fill="white"/>
</clipPath>
</defs>
</svg>
