<svg width="30" height="29" viewBox="0 0 30 29" fill="none" xmlns="http://www.w3.org/2000/svg">
<path d="M4.53045 6.04317L0.287689 1.88204L2.20664 0L29.0719 26.3484L27.153 28.2305L22.6616 23.8256C20.3531 25.2611 17.6155 26.0924 14.6798 26.0924C7.36318 26.0924 1.27618 20.9292 0 14.1153C0.59253 10.9515 2.22216 8.14361 4.53045 6.04317ZM18.4213 19.6668L16.4348 17.7185C15.9033 17.9679 15.3082 18.1077 14.6798 18.1077C12.4316 18.1077 10.6091 16.3201 10.6091 14.1153C10.6091 13.4989 10.7515 12.9152 11.0058 12.3939L9.01933 10.4457C8.30896 11.4976 7.89527 12.7591 7.89527 14.1153C7.89527 17.7901 10.9328 20.7693 14.6798 20.7693C16.0625 20.7693 17.3487 20.3635 18.4213 19.6668ZM9.21716 3.14946C10.909 2.49663 12.7517 2.13807 14.6798 2.13807C21.9963 2.13807 28.0834 7.30124 29.3596 14.1153C28.9359 16.3771 27.9822 18.4571 26.6293 20.2267L21.392 15.0901C21.4396 14.7719 21.4643 14.4464 21.4643 14.1153C21.4643 10.4403 18.4268 7.46125 14.6798 7.46125C14.3421 7.46125 14.0102 7.48543 13.6858 7.53214L9.21716 3.14946Z" fill="#1A1A1A"/>
</svg>
